<svg xmlns="http://www.w3.org/2000/svg" viewBox="0 0 64 64" fill="none">
  <defs>
    <linearGradient id="githubGrad" x1="0%" y1="0%" x2="100%" y2="100%">
      <stop offset="0%" style="stop-color:#1F2937"/>
      <stop offset="100%" style="stop-color:#111827"/>
    </linearGradient>
  </defs>
  <rect width="64" height="64" rx="14" fill="url(#githubGrad)"/>
  <path fill-rule="evenodd" clip-rule="evenodd" d="M32 12C21.5 12 13 20.5 13 31c0 8.4 5.4 15.5 13 18 1 .2 1.3-.4 1.3-.9v-3.2c-5.3 1.2-6.4-2.5-6.4-2.5-.9-2.2-2.1-2.8-2.1-2.8-1.8-1.2.1-1.2.1-1.2 2 .1 3 2 3 2 1.7 3 4.5 2.1 5.6 1.6.2-1.3.7-2.1 1.2-2.6-4.2-.5-8.7-2.1-8.7-9.4 0-2.1.7-3.8 2-5.1-.2-.5-.9-2.4.2-5 0 0 1.6-.5 5.2 2 1.5-.4 3.1-.6 4.7-.6 1.6 0 3.2.2 4.7.6 3.6-2.5 5.2-2 5.2-2 1.1 2.6.4 4.5.2 5 1.2 1.3 2 3 2 5.1 0 7.3-4.5 8.9-8.7 9.4.7.6 1.3 1.8 1.3 3.6v5.3c0 .5.3 1.1 1.3.9 7.6-2.5 13-9.6 13-18 0-10.5-8.5-19-19-19z" fill="white"/>
</svg>
