<svg xmlns="http://www.w3.org/2000/svg" viewBox="0 0 120 120">
  <rect width="120" height="120" rx="26" fill="#24292F"/>
  <path fill="white" d="M60 20C37.909 20 20 37.909 20 60c0 17.673 11.469 32.667 27.375 37.948 2 .367 2.734-.867 2.734-1.925 0-.95-.035-3.467-.052-6.808-11.137 2.42-13.487-5.371-13.487-5.371-1.82-4.625-4.444-5.858-4.444-5.858-3.633-2.483.275-2.433.275-2.433 4.017.283 6.133 4.125 6.133 4.125 3.571 6.117 9.369 4.35 11.652 3.325.363-2.588 1.396-4.35 2.54-5.35-8.894-1.012-18.244-4.447-18.244-19.792 0-4.375 1.563-7.95 4.125-10.75-.413-1.012-1.788-5.087.393-10.606 0 0 3.367-1.079 11.025 4.108 3.197-.89 6.625-1.335 10.033-1.35 3.408.015 6.838.46 10.042 1.35 7.65-5.187 11.012-4.108 11.012-4.108 2.188 5.519.813 9.594.4 10.606 2.567 2.8 4.121 6.375 4.121 10.75 0 15.379-9.367 18.768-18.294 19.763 1.438 1.238 2.719 3.683 2.719 7.425 0 5.358-.05 9.679-.05 10.996 0 1.071.725 2.317 2.754 1.925C88.539 92.658 100 77.667 100 60c0-22.091-17.909-40-40-40z"/>
</svg>
