<svg xmlns="http://www.w3.org/2000/svg" viewBox="0 0 120 120">
  <defs>
    <linearGradient id="settingsGrad" x1="0%" y1="0%" x2="100%" y2="100%">
      <stop offset="0%" style="stop-color:#8E8E93"/>
      <stop offset="100%" style="stop-color:#636366"/>
    </linearGradient>
  </defs>
  <rect width="120" height="120" rx="26" fill="url(#settingsGrad)"/>
  <g fill="white">
    <circle cx="60" cy="60" r="20" fill="none" stroke="white" stroke-width="6"/>
    <circle cx="60" cy="60" r="8"/>
    <rect x="57" y="18" width="6" height="14" rx="3"/>
    <rect x="57" y="88" width="6" height="14" rx="3"/>
    <rect x="88" y="57" width="14" height="6" rx="3"/>
    <rect x="18" y="57" width="14" height="6" rx="3"/>
    <rect x="82" y="26" width="6" height="14" rx="3" transform="rotate(45 85 33)"/>
    <rect x="32" y="80" width="6" height="14" rx="3" transform="rotate(45 35 87)"/>
    <rect x="80" y="82" width="14" height="6" rx="3" transform="rotate(45 87 85)"/>
    <rect x="26" y="32" width="14" height="6" rx="3" transform="rotate(45 33 35)"/>
  </g>
</svg>
